<?xml version="1.0" encoding="UTF-8" standalone="no"?>
<svg
   version="1.1"
   width="55pt"
   height="55pt"
   viewBox="0 0 54.999999 55.000001"
   id="svg12"
   sodipodi:docname="favicon.svg"
   inkscape:version="1.3 (0e150ed, 2023-07-21)"
   inkscape:export-filename="favicon-32x32.png"
   inkscape:export-xdpi="41.890907"
   inkscape:export-ydpi="41.890907"
   xmlns:inkscape="http://www.inkscape.org/namespaces/inkscape"
   xmlns:sodipodi="http://sodipodi.sourceforge.net/DTD/sodipodi-0.dtd"
   xmlns="http://www.w3.org/2000/svg"
   xmlns:svg="http://www.w3.org/2000/svg">
  <sodipodi:namedview
     id="namedview12"
     pagecolor="#ffffff"
     bordercolor="#000000"
     borderopacity="0.25"
     inkscape:showpageshadow="2"
     inkscape:pageopacity="0.0"
     inkscape:pagecheckerboard="0"
     inkscape:deskcolor="#d1d1d1"
     inkscape:document-units="pt"
     inkscape:zoom="4.9557622"
     inkscape:cx="74.761456"
     inkscape:cy="26.534768"
     inkscape:window-width="1600"
     inkscape:window-height="760"
     inkscape:window-x="1700"
     inkscape:window-y="206"
     inkscape:window-maximized="0"
     inkscape:current-layer="svg12" />
  <defs
     id="defs2">
    <clipPath
       id="clip_1">
      <path
         transform="matrix(1,0,0,-1,-15.732,60.378)"
         d="M 0,0 H 340.157 V 85.039 H 0 Z"
         id="path2" />
    </clipPath>
    <clipPath
       clipPathUnits="userSpaceOnUse"
       id="clipPath13">
      <g
         id="g14">
        <path
           d="M -15.732,60.378 H 324.425 V -24.6614 H -15.732 Z"
           id="path13" />
      </g>
    </clipPath>
    <clipPath
       clipPathUnits="userSpaceOnUse"
       id="clipPath14">
      <g
         id="g15">
        <path
           d="M -15.732,60.378 H 324.425 V -24.6614 H -15.732 Z"
           id="path14" />
      </g>
    </clipPath>
    <clipPath
       clipPathUnits="userSpaceOnUse"
       id="clipPath15">
      <g
         id="g16">
        <path
           d="M -15.732,60.378 H 324.425 V -24.6614 H -15.732 Z"
           id="path15" />
      </g>
    </clipPath>
  </defs>
  <g
     clip-path="url(#clipPath14)"
     id="g11"
     transform="translate(-0.15133898,9.5343558)">
    <path
       transform="matrix(1,0,0,-1,24.7522,7.6497995)"
       d="m 0,0 c -1.975,1.277 -4.263,1.953 -6.616,1.953 -2.355,0 -4.644,-0.676 -6.62,-1.955 -0.403,-0.261 -0.663,-0.687 -0.714,-1.168 -0.052,-0.492 0.119,-0.974 0.467,-1.322 l 0.662,-0.662 c 0.314,-0.314 0.726,-0.476 1.14,-0.476 0.289,0 0.578,0.078 0.837,0.238 1.271,0.785 2.733,1.201 4.228,1.201 1.493,0 2.954,-0.415 4.224,-1.199 0.633,-0.391 1.446,-0.294 1.977,0.238 l 0.662,0.662 c 0.349,0.349 0.519,0.831 0.467,1.322 C 0.663,-0.686 0.403,-0.261 0,0"
       fill="#7f529a"
       id="path8" />
    <path
       transform="matrix(1,0,0,-1,16.2614,25.841099)"
       d="m 0,0 c -3.689,0.873 -6.266,4.13 -6.266,7.921 0,1.503 0.417,2.975 1.207,4.254 0.375,0.609 0.281,1.391 -0.23,1.901 l -0.662,0.662 c -0.335,0.336 -0.799,0.499 -1.272,0.45 -0.464,-0.05 -0.873,-0.299 -1.123,-0.687 -1.27,-1.964 -1.941,-4.24 -1.941,-6.58 0,-5.687 4.035,-10.685 9.594,-11.885 0.106,-0.023 0.212,-0.034 0.319,-0.034 0.343,0 0.68,0.118 0.956,0.341 0.37,0.299 0.583,0.744 0.583,1.219 v 0.923 C 1.165,-0.797 0.675,-0.159 0,0"
       fill="#3ea3dc"
       id="path9" />
    <path
       transform="matrix(1,0,0,-1,38.437997,5.758499)"
       d="m 0,0 c -6.706,0 -12.162,-5.456 -12.162,-12.162 l 0.006,-0.053 -0.007,-0.061 c -0.052,-3.815 -2.807,-7.124 -6.549,-7.868 -0.51,-0.101 -0.881,-0.553 -0.881,-1.072 v -1.856 c 0,-0.325 0.142,-0.632 0.391,-0.844 0.242,-0.206 0.56,-0.295 0.871,-0.244 5.905,0.966 10.19,6.013 10.19,11.999 0,4.488 3.652,8.14 8.141,8.14 4.489,0 8.141,-3.652 8.141,-8.141 0,-4.488 -3.652,-8.141 -8.141,-8.141 -1.108,0 -2.01,-0.901 -2.01,-2.01 0,-1.108 0.902,-2.01 2.01,-2.01 6.706,0 12.162,5.456 12.162,12.161 C 12.162,-5.456 6.706,0 0,0"
       fill="#7f529a"
       id="path10" />
  </g>
</svg>
