<?xml version="1.0" encoding="UTF-8"?>
<svg id="Layer_2" data-name="Layer 2" xmlns="http://www.w3.org/2000/svg" viewBox="0 0 632.32 710.94">
  <defs>
    <style>
      .cls-1 {
        fill: #58595b;
      }

      .cls-2 {
        font-family: Arial-Black, 'Arial Black';
        font-size: 14px;
        font-weight: 800;
      }

      .cls-2, .cls-3 {
        fill: #fff;
      }

      .cls-4 {
        fill: #0076b4;
      }

      .cls-5 {
        fill: #ae538e;
      }
    </style>
  </defs>
  <g id="Layer_1" data-name="Layer 1">
    <g>
      <path class="cls-1" d="M409.34,77.89l-16.2,51.54c-24.39-6.99-50.15-10.73-76.79-10.73s-52.4,3.74-76.8,10.73l-16.2-51.54c30.05-8.77,61.19-13.19,93-13.19s62.94,4.42,92.99,13.19Z"/>
      <path class="cls-4" d="M246.87,199.06c-3.76,1.3-7.48,2.72-11.18,4.25-26.37,10.92-49.91,26.94-69.98,47.63-19.9,20.51-35.11,44.36-45.09,70.26l-50.95-17.83c12.34-32.66,31.43-63.38,57.28-90.03,29.94-30.86,65.61-52.82,103.72-65.82l16.2,51.54Z"/>
      <path class="cls-5" d="M183.75,444.03l-49.98,20.53c-14.88-40.21-16.08-84.39-3.48-125.26l51,17.85c-3.93,13.41-5.85,27.49-5.62,41.87.25,15.58,3.01,30.74,8.08,45.01Z"/>
      <path class="cls-4" d="M119.89,470.26l-49.93,20.51c-21.27-55.84-22.95-117.49-4.85-174.28l50.94,17.83c-6.51,20.98-9.71,43.09-9.35,65.7.38,24.37,4.89,48.05,13.19,70.24Z"/>
      <path class="cls-5" d="M267.61,529.01l-16.2,51.55c-25.61-9.08-49.73-23.69-70.52-43.85-18.07-17.53-32.02-37.7-41.83-59.31l49.99-20.54c7.14,15.16,17.04,29.06,29.44,41.09,14.27,13.84,30.98,24.33,49.12,31.06Z"/>
      <path class="cls-4" d="M246.92,594.86l-16.19,51.52c-35.55-12.23-69.05-32.28-97.83-60.2-25.09-24.35-44.32-52.46-57.65-82.57l49.93-20.51c10.75,23.8,26.01,45.59,45.32,64.32,22.1,21.45,48.14,37.49,76.42,47.44Z"/>
      <path class="cls-5" d="M436.05,550.81c-34.95,27.26-77.16,40.94-119.43,40.94-17.48,0-34.96-2.34-51.95-7.02l16.2-51.55c11.54,3.02,23.54,4.57,35.75,4.57,31.09,0,60.51-9.95,84.73-28.36l34.7,41.42Z"/>
      <path class="cls-4" d="M480.4,603.76c-47.7,37.93-105.66,56.97-163.69,56.97-24.48,0-48.98-3.39-72.72-10.18l16.18-51.51c18.2,5.07,37.19,7.69,56.54,7.69,27.78,0,54.79-5.35,80.29-15.91,17.56-7.27,33.86-16.8,48.72-28.47l34.68,41.41Z"/>
      <path class="cls-5" d="M577.72,432.32c-7.17,54.06-31.12,106.35-71.98,148.47-4.76,4.91-9.66,9.59-14.7,14.04l-34.69-41.42-9.66-11.53-34.7-41.43c1.85-1.72,3.67-3.49,5.44-5.32,20.48-21.13,33.56-47.52,37.96-76.04l53.71,5.81,14.95,1.62,53.67,5.8Z"/>
      <path class="cls-5" d="M579.18,418.5l-53.69-5.81-14.93-1.61-53.74-5.81c.19-3.37.25-6.76.2-10.16-.25-15.58-3.01-30.73-8.07-45.01l49.97-20.52,13.88-5.71,49.93-20.51c14.05,36.87,19.55,76.28,16.45,115.14Z"/>
      <path class="cls-5" d="M557.45,290.52l-49.94,20.51-13.88,5.7-49.98,20.53c-7.14-15.16-17.04-29.06-29.44-41.08-14.27-13.84-30.99-24.32-49.13-31.05l16.2-51.56,4.49-14.3,16.19-51.52c35.56,12.23,69.06,32.28,97.84,60.2,25.1,24.34,44.32,52.46,57.65,82.57Z"/>
      <path class="cls-5" d="M368.02,209.4l-16.2,51.56c-11.54-3.02-23.53-4.58-35.74-4.58-38.35,0-74.16,15.14-100.82,42.63-12.81,13.2-22.71,28.46-29.42,45.02l-50.98-17.85c9.13-23.48,23-45.56,41.64-64.77,38.11-39.29,88.8-59.03,139.57-59.03,17.48,0,34.97,2.34,51.95,7.02Z"/>
      <path class="cls-4" d="M388.7,143.58l-16.18,51.51c-18.2-5.07-37.18-7.69-56.53-7.69h-.01c-19.05,0-37.75,2.52-55.85,7.52l-16.19-51.52c23.5-6.67,47.76-10,72.04-10s48.98,3.39,72.72,10.18Z"/>
      <polygon class="cls-4" points="382.29 162.33 379.65 170.66 388.18 168.78 382.29 162.33"/>
      <polygon class="cls-1" points="311.79 118 316.16 125.57 320.53 118 311.79 118"/>
      <polygon class="cls-5" points="360.63 231.41 357.99 239.73 366.52 237.85 360.63 231.41"/>
      <text class="cls-2" transform="translate(276.27 165.23) rotate(-8.56)"><tspan x="0" y="0">P</tspan></text>
      <text class="cls-2" transform="translate(286.07 163.76) rotate(-6.21)"><tspan x="0" y="0">L</tspan></text>
      <text class="cls-2" transform="translate(295.15 162.75) rotate(-3.78)"><tspan x="0" y="0">A</tspan></text>
      <text class="cls-2" transform="translate(305.78 162.03) rotate(-1.06)"><tspan x="0" y="0">N</tspan></text>
      <text class="cls-2" transform="translate(317.2 161.82) rotate(1.73)"><tspan x="0" y="0">N</tspan></text>
      <text class="cls-2" transform="translate(328.65 162.22) rotate(3.78)"><tspan x="0" y="0">I</tspan></text>
      <text class="cls-2" transform="translate(333.93 162.51) rotate(5.83)"><tspan x="0" y="0">N</tspan></text>
      <text class="cls-2" transform="translate(345.31 163.66) rotate(8.63)"><tspan x="0" y="0">G</tspan></text>
      <text class="cls-2" transform="translate(397.99 215.78) rotate(26.22)"><tspan x="0" y="0">R</tspan></text>
      <text class="cls-2" transform="translate(407.5 220.46) rotate(29.2)"><tspan x="0" y="0">E</tspan></text>
      <text class="cls-2" transform="translate(416.12 225.25) rotate(32.29)"><tspan x="0" y="0">Q</tspan></text>
      <text class="cls-2" transform="translate(425.75 231.32) rotate(35.6)"><tspan x="0" y="0">U</tspan></text>
      <text class="cls-2" transform="translate(435.02 238.04) rotate(38.02)"><tspan x="0" y="0">I</tspan></text>
      <text class="cls-2" transform="translate(439.19 241.22) rotate(40.33)"><tspan x="0" y="0">R</tspan></text>
      <text class="cls-2" transform="translate(447.3 248.11) rotate(43.3)"><tspan x="0" y="0">E</tspan></text>
      <text class="cls-2" transform="translate(454.47 254.8) rotate(46.58)"><tspan x="0" y="0">M</tspan></text>
      <text class="cls-2" transform="translate(463.35 264.23) rotate(49.89)"><tspan x="0" y="0">E</tspan></text>
      <text class="cls-2" transform="translate(469.7 271.72) rotate(52.96)"><tspan x="0" y="0">N</tspan></text>
      <text class="cls-2" transform="translate(476.55 280.83) rotate(56.05)"><tspan x="0" y="0">T</tspan></text>
      <text class="cls-2" transform="translate(482.06 289) rotate(58.92)"><tspan x="0" y="0">S</tspan></text>
      <text class="cls-2" transform="translate(282.22 574.13) rotate(9.05)"><tspan x="0" y="0">D</tspan></text>
      <text class="cls-2" transform="translate(293.28 575.9) rotate(5.38)"><tspan x="0" y="0">O</tspan></text>
      <text class="cls-2" transform="translate(305.21 577) rotate(1.72)"><tspan x="0" y="0">C</tspan></text>
      <text class="cls-2" transform="translate(316.4 577.34) rotate(-1.94)"><tspan x="0" y="0">U</tspan></text>
      <text class="cls-2" transform="translate(328.45 576.94) rotate(-5.99)"><tspan x="0" y="0">M</tspan></text>
      <text class="cls-2" transform="translate(341.89 575.47) rotate(-9.74)"><tspan x="0" y="0">E</tspan></text>
      <text class="cls-2" transform="translate(352.17 573.72) rotate(-13.22)"><tspan x="0" y="0">N</tspan></text>
      <text class="cls-2" transform="translate(363.79 570.96) rotate(-16.66)"><tspan x="0" y="0">T</tspan></text>
      <text class="cls-2" transform="translate(372.87 568.27) rotate(-19.73)"><tspan x="0" y="0">A</tspan></text>
      <text class="cls-2" transform="translate(382.46 564.84) rotate(-22.8)"><tspan x="0" y="0">T</tspan></text>
      <text class="cls-2" transform="translate(391.96 560.79) rotate(-25.32)"><tspan x="0" y="0">I</tspan></text>
      <text class="cls-2" transform="translate(397.13 558.42) rotate(-28.1)"><tspan x="0" y="0">O</tspan></text>
      <text class="cls-2" transform="translate(407.71 552.75) rotate(-31.89)"><tspan x="0" y="0">N</tspan></text>
      <text class="cls-2" transform="translate(183.56 487.31) rotate(53.18)"><tspan x="0" y="0">R</tspan></text>
      <text class="cls-2" transform="translate(190.3 496.28) rotate(49.32)"><tspan x="0" y="0">E</tspan></text>
      <text class="cls-2" transform="translate(197.13 504.18) rotate(45.72)"><tspan x="0" y="0">L</tspan></text>
      <text class="cls-2" transform="translate(203.85 511.08) rotate(42.15)"><tspan x="0" y="0">E</tspan></text>
      <text class="cls-2" transform="translate(211.62 518.11) rotate(38.28)"><tspan x="0" y="0">A</tspan></text>
      <text class="cls-2" transform="translate(220.44 525.04) rotate(34.45)"><tspan x="0" y="0">S</tspan></text>
      <text class="cls-2" transform="translate(229.06 530.93) rotate(30.93)"><tspan x="0" y="0">E</tspan></text>
      <text class="cls-2" transform="translate(161.99 442) rotate(-105.06)"><tspan x="0" y="0">A</tspan></text>
      <text class="cls-2" transform="translate(159.24 431.79) rotate(-101.29)"><tspan x="0" y="0">R</tspan></text>
      <text class="cls-2" transform="translate(157.2 421.68) rotate(-97.63)"><tspan x="0" y="0">C</tspan></text>
      <text class="cls-2" transform="translate(155.78 411.24) rotate(-93.76)"><tspan x="0" y="0">H</tspan></text>
      <text class="cls-2" transform="translate(155.1 399.84) rotate(-90.82)"><tspan x="0" y="0">I</tspan></text>
      <text class="cls-2" transform="translate(154.95 394.62) rotate(-88.01)"><tspan x="0" y="0">V</tspan></text>
      <text class="cls-2" transform="translate(155.38 383.99) rotate(-85.22)"><tspan x="0" y="0">I</tspan></text>
      <text class="cls-2" transform="translate(155.73 378.8) rotate(-82.28)"><tspan x="0" y="0">N</tspan></text>
      <text class="cls-2" transform="translate(157.24 367.58) rotate(-78.27)"><tspan x="0" y="0">G</tspan></text>
      <text class="cls-2" transform="translate(505.17 340.35) rotate(75.58)"><tspan x="0" y="0">D</tspan></text>
      <text class="cls-2" transform="translate(507.81 350.62) rotate(78.56)"><tspan x="0" y="0">E</tspan></text>
      <text class="cls-2" transform="translate(509.78 360.31) rotate(81.44)"><tspan x="0" y="0">S</tspan></text>
      <text class="cls-2" transform="translate(511.21 370.12) rotate(83.64)"><tspan x="0" y="0">I</tspan></text>
      <text class="cls-2" transform="translate(511.86 375.32) rotate(86.07)"><tspan x="0" y="0">G</tspan></text>
      <text class="cls-2" transform="translate(512.65 386.66) rotate(89.36)"><tspan x="0" y="0">N</tspan></text>
      <text class="cls-2" transform="translate(461.98 541.35) rotate(-46.33)"><tspan x="0" y="0">D</tspan></text>
      <text class="cls-2" transform="translate(469.66 533.28) rotate(-49.33)"><tspan x="0" y="0">E</tspan></text>
      <text class="cls-2" transform="translate(476.43 525.41) rotate(-52.34)"><tspan x="0" y="0">V</tspan></text>
      <text class="cls-2" transform="translate(483.24 516.55) rotate(-55.35)"><tspan x="0" y="0">E</tspan></text>
      <text class="cls-2" transform="translate(489.12 508.01) rotate(-58.14)"><tspan x="0" y="0">L</tspan></text>
      <text class="cls-2" transform="translate(494.08 500.1) rotate(-61.06)"><tspan x="0" y="0">O</tspan></text>
      <text class="cls-2" transform="translate(499.83 489.65) rotate(-64.15)"><tspan x="0" y="0">P</tspan></text>
      <text class="cls-2" transform="translate(504.4 480.28) rotate(-67.44)"><tspan x="0" y="0">M</tspan></text>
      <text class="cls-2" transform="translate(509.55 467.79) rotate(-70.89)"><tspan x="0" y="0">E</tspan></text>
      <text class="cls-2" transform="translate(512.97 458.02) rotate(-73.74)"><tspan x="0" y="0">N</tspan></text>
      <text class="cls-2" transform="translate(516.28 446.57) rotate(-76.82)"><tspan x="0" y="0">T</tspan></text>
      <text class="cls-2" transform="translate(194.26 289.15) rotate(-46.71)"><tspan x="0" y="0">M</tspan></text>
      <text class="cls-2" transform="translate(203.1 279.81) rotate(-42.55)"><tspan x="0" y="0">A</tspan></text>
      <text class="cls-2" transform="translate(210.97 272.67) rotate(-39.74)"><tspan x="0" y="0">I</tspan></text>
      <text class="cls-2" transform="translate(214.93 269.27) rotate(-36.79)"><tspan x="0" y="0">N</tspan></text>
      <text class="cls-2" transform="translate(224.01 262.5) rotate(-33.06)"><tspan x="0" y="0">T</tspan></text>
      <text class="cls-2" transform="translate(232.23 257.13) rotate(-29.59)"><tspan x="0" y="0">E</tspan></text>
      <text class="cls-2" transform="translate(240.71 252.28) rotate(-25.86)"><tspan x="0" y="0">N</tspan></text>
      <text class="cls-2" transform="translate(250.8 247.39) rotate(-22.03)"><tspan x="0" y="0">A</tspan></text>
      <text class="cls-2" transform="translate(260.57 243.4) rotate(-18.15)"><tspan x="0" y="0">N</tspan></text>
      <text class="cls-2" transform="translate(271.33 239.88) rotate(-14.27)"><tspan x="0" y="0">C</tspan></text>
      <text class="cls-2" transform="translate(281.6 237.27) rotate(-10.62)"><tspan x="0" y="0">E</tspan></text>
      <text class="cls-2" transform="translate(101.89 303.01) rotate(-65.43)"><tspan x="0" y="0">C</tspan></text>
      <text class="cls-2" transform="translate(106.31 293.31) rotate(-62.71)"><tspan x="0" y="0">O</tspan></text>
      <text class="cls-2" transform="translate(111.51 283.18) rotate(-59.72)"><tspan x="0" y="0">M</tspan></text>
      <text class="cls-2" transform="translate(118.04 271.98) rotate(-56.54)"><tspan x="0" y="0">M</tspan></text>
      <text class="cls-2" transform="translate(125.18 261.19) rotate(-53.56)"><tspan x="0" y="0">U</tspan></text>
      <text class="cls-2" transform="translate(131.96 252) rotate(-50.77)"><tspan x="0" y="0">N</tspan></text>
      <text class="cls-2" transform="translate(139.26 243.15) rotate(-48.72)"><tspan x="0" y="0">I</tspan></text>
      <text class="cls-2" transform="translate(142.73 239.13) rotate(-46.85)"><tspan x="0" y="0">T</tspan></text>
      <text class="cls-2" transform="translate(149.47 231.91) rotate(-44.35)"><tspan x="0" y="0">Y</tspan></text>
      <text class="cls-2" transform="translate(157.18 224.45) rotate(-42.48)"><tspan x="0" y="0"> </tspan></text>
      <text class="cls-2" transform="translate(160.48 221.38) rotate(-40.81)"><tspan x="0" y="0">F</tspan></text>
      <text class="cls-2" transform="translate(167.4 215.39) rotate(-38.47)"><tspan x="0" y="0">E</tspan></text>
      <text class="cls-2" transform="translate(175.15 209.22) rotate(-36.04)"><tspan x="0" y="0">E</tspan></text>
      <text class="cls-2" transform="translate(183.13 203.4) rotate(-33.51)"><tspan x="0" y="0">D</tspan></text>
      <text class="cls-2" transform="translate(192.04 197.5) rotate(-30.88)"><tspan x="0" y="0">B</tspan></text>
      <text class="cls-2" transform="translate(200.97 192.14) rotate(-28.31)"><tspan x="0" y="0">A</tspan></text>
      <text class="cls-2" transform="translate(210.13 187.19) rotate(-25.74)"><tspan x="0" y="0">C</tspan></text>
      <text class="cls-2" transform="translate(219.72 182.56) rotate(-23)"><tspan x="0" y="0">K</tspan></text>
      <text class="cls-2" transform="translate(89.1 447.09) rotate(-101.6)"><tspan x="0" y="0">A</tspan></text>
      <text class="cls-2" transform="translate(86.95 436.66) rotate(-98.97)"><tspan x="0" y="0">R</tspan></text>
      <text class="cls-2" transform="translate(85.32 426.38) rotate(-96.42)"><tspan x="0" y="0">C</tspan></text>
      <text class="cls-2" transform="translate(84.11 415.79) rotate(-93.7)"><tspan x="0" y="0">H</tspan></text>
      <text class="cls-2" transform="translate(83.42 404.31) rotate(-91.65)"><tspan x="0" y="0">I</tspan></text>
      <text class="cls-2" transform="translate(83.22 399.03) rotate(-89.69)"><tspan x="0" y="0">V</tspan></text>
      <text class="cls-2" transform="translate(83.32 388.31) rotate(-87.73)"><tspan x="0" y="0">I</tspan></text>
      <text class="cls-2" transform="translate(83.47 383.03) rotate(-85.68)"><tspan x="0" y="0">N</tspan></text>
      <text class="cls-2" transform="translate(84.32 371.67) rotate(-82.89)"><tspan x="0" y="0">G</tspan></text>
      <text class="cls-2" transform="translate(116.78 533.72) rotate(53.96)"><tspan x="0" y="0">P</tspan></text>
      <text class="cls-2" transform="translate(122.84 542.08) rotate(51.32)"><tspan x="0" y="0">U</tspan></text>
      <text class="cls-2" transform="translate(130.3 551.36) rotate(48.59)"><tspan x="0" y="0">B</tspan></text>
      <text class="cls-2" transform="translate(137.65 559.67) rotate(46.13)"><tspan x="0" y="0">L</tspan></text>
      <text class="cls-2" transform="translate(144.25 566.49) rotate(44.34)"><tspan x="0" y="0">I</tspan></text>
      <text class="cls-2" transform="translate(148.26 570.46) rotate(42.36)"><tspan x="0" y="0">C</tspan></text>
      <text class="cls-2" transform="translate(156.47 577.94) rotate(39.72)"><tspan x="0" y="0">A</tspan></text>
      <text class="cls-2" transform="translate(164.26 584.43) rotate(37.42)"><tspan x="0" y="0">T</tspan></text>
      <text class="cls-2" transform="translate(172.45 590.64) rotate(35.55)"><tspan x="0" y="0">I</tspan></text>
      <text class="cls-2" transform="translate(177 593.96) rotate(33.5)"><tspan x="0" y="0">O</tspan></text>
      <text class="cls-2" transform="translate(186.92 600.49) rotate(30.93)"><tspan x="0" y="0">N</tspan></text>
      <text class="cls-2" transform="translate(290.91 636.42) rotate(4.61)"><tspan x="0" y="0">U</tspan></text>
      <text class="cls-2" transform="translate(302.75 637.35) rotate(1.97)"><tspan x="0" y="0">S</tspan></text>
      <text class="cls-2" transform="translate(313.08 637.7) rotate(-.48)"><tspan x="0" y="0">E</tspan></text>
      <text class="cls-2" transform="translate(323.34 637.57) rotate(-2.27)"><tspan x="0" y="0"> </tspan></text>
      <text class="cls-2" transform="translate(328.12 637.38) rotate(-3.32)"><tspan x="0" y="0">|</tspan></text>
      <text class="cls-2" transform="translate(332.08 637.15) rotate(-4.36)"><tspan x="0" y="0"> </tspan></text>
      <text class="cls-2" transform="translate(336.9 636.82) rotate(-6.15)"><tspan x="0" y="0">E</tspan></text>
      <text class="cls-2" transform="translate(347.16 635.72) rotate(-8.69)"><tspan x="0" y="0">V</tspan></text>
      <text class="cls-2" transform="translate(357.37 634.17) rotate(-11.13)"><tspan x="0" y="0">A</tspan></text>
      <text class="cls-2" transform="translate(368.24 632.01) rotate(-13.56)"><tspan x="0" y="0">L</tspan></text>
      <text class="cls-2" transform="translate(377.17 629.89) rotate(-15.98)"><tspan x="0" y="0">U</tspan></text>
      <text class="cls-2" transform="translate(388.13 626.72) rotate(-18.23)"><tspan x="0" y="0">A</tspan></text>
      <text class="cls-2" transform="translate(397.75 623.53) rotate(-20.8)"><tspan x="0" y="0">T</tspan></text>
      <text class="cls-2" transform="translate(407.33 619.85) rotate(-22.64)"><tspan x="0" y="0">I</tspan></text>
      <text class="cls-2" transform="translate(412.55 617.73) rotate(-24.69)"><tspan x="0" y="0">O</tspan></text>
      <text class="cls-2" transform="translate(423.39 612.74) rotate(-27.5)"><tspan x="0" y="0">N</tspan></text>
      <text class="cls-2" transform="translate(333.32 555.5) rotate(-8.14)"><tspan x="0" y="0">Q</tspan></text>
      <text class="cls-2" transform="translate(345.46 553.73) rotate(-12.38)"><tspan x="0" y="0">A</tspan></text>
      <text class="cls-2" transform="translate(160.19 489.62) rotate(57)"><tspan x="0" y="0">D</tspan></text>
      <text class="cls-2" transform="translate(166.29 498.98) rotate(53.59)"><tspan x="0" y="0">E</tspan></text>
      <text class="cls-2" transform="translate(172.47 507.34) rotate(50.3)"><tspan x="0" y="0">P</tspan></text>
      <text class="cls-2" transform="translate(179.12 515.32) rotate(47.14)"><tspan x="0" y="0">L</tspan></text>
      <text class="cls-2" transform="translate(185.48 522.22) rotate(43.81)"><tspan x="0" y="0">O</tspan></text>
      <text class="cls-2" transform="translate(193.44 529.86) rotate(40.46)"><tspan x="0" y="0">Y</tspan></text>
      <text class="cls-2" transform="translate(201.96 537.17) rotate(36.59)"><tspan x="0" y="0">M</tspan></text>
      <text class="cls-2" transform="translate(212.86 545.21) rotate(32.66)"><tspan x="0" y="0">E</tspan></text>
      <text class="cls-2" transform="translate(221.62 550.87) rotate(29.42)"><tspan x="0" y="0">N</tspan></text>
      <text class="cls-2" transform="translate(232.06 556.72) rotate(25.92)"><tspan x="0" y="0">T</tspan></text>
      <text class="cls-2" transform="translate(236.73 93.67) rotate(-13.69)"><tspan x="0" y="0">R</tspan></text>
      <text class="cls-2" transform="translate(247.17 91.13) rotate(-11.77)"><tspan x="0" y="0">E</tspan></text>
      <text class="cls-2" transform="translate(256.91 89.1) rotate(-9.94)"><tspan x="0" y="0">S</tspan></text>
      <text class="cls-2" transform="translate(266.73 87.38) rotate(-8.1)"><tspan x="0" y="0">E</tspan></text>
      <text class="cls-2" transform="translate(276.57 85.96) rotate(-6.2)"><tspan x="0" y="0">A</tspan></text>
      <text class="cls-2" transform="translate(287.24 84.8) rotate(-4.23)"><tspan x="0" y="0">R</tspan></text>
      <text class="cls-2" transform="translate(297.7 84.02) rotate(-2.31)"><tspan x="0" y="0">C</tspan></text>
      <text class="cls-2" transform="translate(308.39 83.58) rotate(-.28)"><tspan x="0" y="0">H</tspan></text>
      <text class="cls-2" transform="translate(319.94 83.57) rotate(1.2)"><tspan x="0" y="0"> </tspan></text>
      <text class="cls-2" transform="translate(324.51 83.63) rotate(2.53)"><tspan x="0" y="0">P</tspan></text>
      <text class="cls-2" transform="translate(334.46 84.05) rotate(4.5)"><tspan x="0" y="0">U</tspan></text>
      <text class="cls-2" transform="translate(345.9 84.96) rotate(6.52)"><tspan x="0" y="0">R</tspan></text>
      <text class="cls-2" transform="translate(356.58 86.18) rotate(8.42)"><tspan x="0" y="0">P</tspan></text>
      <text class="cls-2" transform="translate(366.41 87.62) rotate(10.38)"><tspan x="0" y="0">O</tspan></text>
      <text class="cls-2" transform="translate(377.75 89.71) rotate(12.35)"><tspan x="0" y="0">S</tspan></text>
      <text class="cls-2" transform="translate(387.46 91.83) rotate(14.17)"><tspan x="0" y="0">E</tspan></text>
      <text class="cls-2" transform="translate(274.03 109.86) rotate(-7.19)"><tspan x="0" y="0">Q</tspan></text>
      <text class="cls-2" transform="translate(285.42 108.42) rotate(-4.9)"><tspan x="0" y="0">U</tspan></text>
      <text class="cls-2" transform="translate(296.85 107.45) rotate(-2.77)"><tspan x="0" y="0">E</tspan></text>
      <text class="cls-2" transform="translate(306.76 106.96) rotate(-.8)"><tspan x="0" y="0">S</tspan></text>
      <text class="cls-2" transform="translate(316.72 106.82) rotate(1.18)"><tspan x="0" y="0">T</tspan></text>
      <text class="cls-2" transform="translate(326.68 107.06) rotate(2.69)"><tspan x="0" y="0">I</tspan></text>
      <text class="cls-2" transform="translate(332 107.26) rotate(4.36)"><tspan x="0" y="0">O</tspan></text>
      <text class="cls-2" transform="translate(343.42 108.13) rotate(6.63)"><tspan x="0" y="0">N</tspan></text>
      <polygon class="cls-4" points="236.03 166.49 238.72 174.81 244.57 168.32 236.03 166.49"/>
      <polygon class="cls-4" points="83.51 323.64 91.76 326.51 90.13 317.93 83.51 323.64"/>
      <polygon class="cls-5" points="152.12 347.52 160.37 350.4 158.74 341.82 152.12 347.52"/>
      <polygon class="cls-4" points="93.98 496.54 102.03 493.14 95.06 487.87 93.98 496.54"/>
      <polygon class="cls-5" points="161 468.89 169.05 465.49 162.08 460.22 161 468.89"/>
      <polygon class="cls-4" points="250.73 630.95 253.32 622.61 244.8 624.54 250.73 630.95"/>
      <polygon class="cls-5" points="272.43 561.66 274.89 553.28 266.4 555.33 272.43 561.66"/>
      <polygon class="cls-5" points="445.03 551.27 453.61 549.64 447.91 543.02 445.03 551.27"/>
      <polygon class="cls-5" points="516.41 419.09 521.52 411.99 512.82 411.12 516.41 419.09"/>
      <polygon class="cls-5" points="502.82 320.44 503.95 311.77 495.89 315.13 502.82 320.44"/>
      <path class="cls-3" d="M339.66,561.06l-.27-1.44c2.02-.25,4.18-.58,6.46-1.01,2.25-.43,4.36-.91,6.31-1.42.09.48.18.96.27,1.44-1.94.52-4.06,1.03-6.36,1.46-2.28.43-4.42.74-6.41.97Z"/>
      <path class="cls-3" d="M196.58,512.85l1.02-1.05c1.36,1.51,2.87,3.09,4.54,4.71,1.64,1.6,3.25,3.04,4.78,4.35-.34.35-.68.7-1.02,1.05-1.54-1.29-3.17-2.74-4.85-4.37-1.66-1.62-3.15-3.2-4.47-4.69Z"/>
      <path class="cls-3" d="M309.66,89.37v1.46c2.03-.13,4.22-.22,6.54-.21,2.29,0,4.45.08,6.46.21,0-.49,0-.97,0-1.46-2-.15-4.18-.25-6.52-.25-2.32,0-4.49.1-6.47.25Z"/>
    </g>
  </g>
</svg>